<svg width="50" height="50" viewBox="0 0 50 50" fill="none" xmlns="http://www.w3.org/2000/svg">
<g clip-path="url(#clip0_32_138)">
<path opacity="0.312" fill-rule="evenodd" clip-rule="evenodd" d="M22.2085 -0.0419464C22.2633 -0.0419464 22.318 -0.0419464 22.3727 -0.0419464C22.4001 0.0699104 22.4275 0.0699104 22.4548 -0.0419464C23.7684 -0.0419464 25.0821 -0.0419464 26.3957 -0.0419464C26.4505 0.0699104 26.5051 0.0699104 26.5599 -0.0419464C26.6147 -0.0419464 26.6693 -0.0419464 26.7241 -0.0419464C28.5597 0.176577 30.3659 0.582058 32.1428 1.1745C32.0197 1.21644 31.8965 1.25839 31.7734 1.30034C24.779 0.218965 18.594 2.28831 13.2184 7.50839C8.96237 12.2232 6.97822 17.7181 7.26598 23.9933C7.90611 31.0258 11.1081 36.5907 16.8719 40.6879C20.079 42.7046 23.5137 43.8651 27.1757 44.1695C27.9787 44.1039 28.7724 44.1039 29.5566 44.1695C29.7482 44.1135 29.9398 44.0576 30.1313 44.0017C36.5282 43.4656 41.728 40.4455 45.7307 34.9413C46.8542 33.1601 47.7984 31.2865 48.5632 29.3205C47.3328 36.187 43.912 41.6261 38.3005 45.6376C34.7975 48.0174 30.9935 49.4576 26.8883 49.9581C26.861 49.9581 26.8336 49.9581 26.8062 49.9581C26.7515 49.8462 26.6968 49.8462 26.642 49.9581C25.1094 49.9581 23.5769 49.9581 22.0443 49.9581C14.618 49.0384 8.693 45.487 4.26927 39.3037C1.81064 35.6051 0.373858 31.6062 -0.0410767 27.307C-0.0410767 27.2791 -0.0410767 27.2511 -0.0410767 27.2232C0.0683924 27.1672 0.0683924 27.1113 -0.0410767 27.0554C-0.0410767 25.7131 -0.0410767 24.3708 -0.0410767 23.0285C0.0683924 23.0006 0.0683924 22.9726 -0.0410767 22.9446C-0.0410767 22.8607 -0.0410767 22.7768 -0.0410767 22.693C0.969539 14.2618 4.99253 7.81609 12.0279 3.3557C15.2532 1.48767 18.6468 0.355117 22.2085 -0.0419464Z" fill="#FEFEFE"/>
<path opacity="0.303" fill-rule="evenodd" clip-rule="evenodd" d="M42.4056 1.38422C42.6747 1.36041 42.9346 1.38838 43.1856 1.46812C43.1787 2.95157 43.7944 4.05615 45.0329 4.78187C45.3547 4.89206 45.6831 4.97595 46.0181 5.03355C46.3236 5.17736 46.3783 5.37311 46.1823 5.6208C45.02 5.74486 44.1579 6.31813 43.5961 7.3406C43.3788 8.08368 43.2146 8.83876 43.1035 9.6057C42.9119 9.82944 42.7203 9.82944 42.5288 9.6057C42.4118 9.02055 42.3022 8.4333 42.2004 7.84396C41.7498 6.51813 40.8329 5.77708 39.4499 5.6208C39.3405 5.45302 39.3405 5.28523 39.4499 5.11745C41.4747 4.73979 42.4599 3.49539 42.4056 1.38422ZM42.734 3.39765C43.0339 3.88795 43.3897 4.34936 43.8013 4.78187C44.0884 4.99857 44.3895 5.19432 44.7045 5.36912C43.8416 5.78949 43.2121 6.44665 42.8161 7.3406C42.4223 6.44875 41.7928 5.7916 40.9278 5.36912C41.8011 4.96629 42.4031 4.30913 42.734 3.39765Z" fill="#EBEBEE"/>
<path opacity="0.236" fill-rule="evenodd" clip-rule="evenodd" d="M38.8752 1.55202C38.9997 1.55291 39.0956 1.60883 39.1625 1.7198C39.2374 2.067 39.347 2.40257 39.491 2.72651C39.7291 2.90573 39.989 3.04555 40.2709 3.14598C40.3733 3.27535 40.3733 3.40119 40.2709 3.5235C39.5506 3.63697 39.2085 4.07042 39.2447 4.82383C39.0884 5.11366 38.8968 5.14162 38.6699 4.90772C38.6937 4.15042 38.3515 3.68901 37.6437 3.5235C37.5342 3.38367 37.5342 3.24386 37.6437 3.10403C38.3639 2.99056 38.7061 2.55711 38.6699 1.8037C38.7272 1.70381 38.7956 1.61992 38.8752 1.55202ZM38.8752 2.97819C39.3704 3.14963 39.3978 3.37334 38.9573 3.64933C38.5625 3.4612 38.535 3.23749 38.8752 2.97819Z" fill="#FEFEFE"/>
<path opacity="0.302" fill-rule="evenodd" clip-rule="evenodd" d="M37.5616 8.09563C37.744 8.06862 37.8946 8.12454 38.0131 8.26342C37.9771 9.31577 38.456 9.94496 39.4499 10.151C39.6689 10.3467 39.6689 10.5425 39.4499 10.7383C38.4869 10.9263 38.0217 11.5275 38.0542 12.5419C37.9957 12.719 37.8726 12.8029 37.6847 12.7936C37.5758 12.7722 37.4937 12.7163 37.4384 12.6258C37.4745 11.5735 36.9956 10.9443 36.0016 10.7383C35.7827 10.5425 35.7827 10.3467 36.0016 10.151C36.4616 10.1048 36.8311 9.89505 37.11 9.52181C37.2342 9.03112 37.3848 8.5557 37.5616 8.09563ZM37.6437 9.85738C37.8573 10.0469 38.0763 10.2427 38.3005 10.4446C38.0793 10.6147 37.8878 10.8105 37.7258 11.0319C37.5616 10.8081 37.37 10.6124 37.1511 10.4446C37.3781 10.2971 37.5424 10.1013 37.6437 9.85738Z" fill="#EBECEF"/>
<path opacity="0.299" fill-rule="evenodd" clip-rule="evenodd" d="M13.5057 16.2332C13.614 16.3504 13.7509 16.4063 13.9163 16.401C14.2513 16.2842 14.5797 16.2282 14.9015 16.2332C15.2275 16.2917 15.5559 16.3337 15.8867 16.3591C16.0149 16.3858 16.1107 16.4556 16.1741 16.5688C16.2363 16.3666 16.3731 16.2827 16.5846 16.3171C16.9302 16.3517 17.2722 16.4076 17.6108 16.4849C17.5646 16.6056 17.5372 16.7315 17.5287 16.8624C17.5868 17.149 17.6689 17.4287 17.775 17.7014C17.678 18.3277 17.5959 18.9708 17.5287 19.6309C17.4907 19.9546 17.5728 20.2342 17.775 20.4698C17.5419 21.112 17.5145 21.7552 17.6929 22.3993C17.6731 22.7905 17.6458 23.182 17.6108 23.5738C17.7363 23.7121 17.791 23.8799 17.775 24.0772C17.545 24.8071 17.5723 25.5202 17.8571 26.2165C17.9534 26.2516 18.0355 26.3075 18.1034 26.3842C18.655 26.4362 19.2024 26.5061 19.7455 26.594C20.2406 26.9322 20.2679 27.2958 19.8276 27.6846C19.271 27.6757 18.7374 27.7456 18.2266 27.8943C18.0153 27.6202 17.7554 27.5643 17.4466 27.7265C17.4646 27.628 17.4373 27.5441 17.3645 27.4748C16.9043 27.7776 16.4254 27.8056 15.9277 27.5587C15.6822 27.6722 15.4222 27.7281 15.1478 27.7265C14.8303 27.6483 14.5156 27.6483 14.2036 27.7265C14.0121 27.6426 13.8204 27.5587 13.6289 27.4748C13.4791 27.512 13.3286 27.54 13.1773 27.5587C13.1531 27.2587 13.2352 26.9931 13.4236 26.7618C13.6899 26.7093 13.9362 26.6115 14.1626 26.4681C14.7186 26.5463 15.2523 26.4624 15.7635 26.2165C15.8269 26.2286 15.8817 26.2566 15.9277 26.3004C16.0372 26.0766 16.1467 25.853 16.2562 25.6292C16.2323 25.1837 16.1912 24.7363 16.133 24.2869C16.2836 23.5347 16.3383 22.7796 16.2972 22.0218C16.0985 21.57 16.0985 21.1226 16.2972 20.6795C16.0988 20.2635 16.0988 19.8441 16.2972 19.4212C16.1089 19.0742 16.0815 18.7106 16.2151 18.3306C16.1484 18.2203 16.0663 18.1224 15.9688 18.0369C16.2533 17.9586 16.2806 17.8327 16.0509 17.6594C15.68 17.6251 15.3379 17.5132 15.0246 17.3238C14.4778 17.3353 13.9305 17.3633 13.3826 17.4077C13.3415 17.3798 13.3005 17.3518 13.2594 17.3238C13.3356 17.2175 13.3493 17.1056 13.3005 16.9883C13.2175 17.0585 13.1217 17.0864 13.0131 17.0722C13 16.9296 13.0136 16.7898 13.0542 16.6527C13.2453 16.555 13.3959 16.4153 13.5057 16.2332Z" fill="#FEFEFE"/>
<path opacity="0.3" fill-rule="evenodd" clip-rule="evenodd" d="M22.8654 18.75C23.4357 19.0445 23.5999 19.4919 23.358 20.0923C22.9385 20.0994 22.7743 20.2951 22.8654 20.6795C22.7915 20.8254 22.7367 20.9792 22.7012 21.1409C22.8148 21.3774 22.8969 21.6291 22.9475 21.896C22.8127 22.1766 22.7717 22.4702 22.8243 22.7768C22.9125 22.8706 23.0082 22.9545 23.1117 23.0285C22.9853 23.3008 22.8485 23.5664 22.7012 23.8255C22.779 23.866 22.8611 23.88 22.9475 23.8674C22.9741 24.2076 22.9467 24.5432 22.8654 24.8742C22.7743 24.7827 22.6922 24.7827 22.6191 24.8742C22.9404 25.04 23.0225 25.2917 22.8654 25.6292C22.9089 25.9722 23.0867 26.196 23.399 26.3003C23.477 26.2565 23.5455 26.2006 23.6043 26.1326C23.818 26.2216 24.037 26.2356 24.2611 26.1745C24.4992 26.0284 24.7455 25.9025 25 25.797C25.0774 25.806 25.1458 25.834 25.2053 25.8809C25.5201 25.3634 25.7802 24.8181 25.9852 24.245C25.7522 24.1242 25.6975 23.9564 25.821 23.7416C25.7747 23.5297 25.72 23.32 25.6568 23.1124C25.7774 22.8421 25.8185 22.5624 25.78 22.2735C25.5613 22.1867 25.5476 22.047 25.7389 21.854C25.6295 21.5464 25.6295 21.2388 25.7389 20.9312C25.578 20.781 25.4686 20.5992 25.4105 20.3859C24.7017 20.3212 24.4691 19.9437 24.7127 19.2534C24.8538 19.0808 25.018 18.9409 25.2053 18.8339C25.6158 18.9457 26.0263 18.9457 26.4368 18.8339C26.5686 18.8843 26.678 18.9682 26.7652 19.0856C27.572 18.6023 27.9551 18.8259 27.9146 19.7567C27.876 19.9032 27.8212 20.043 27.7504 20.1762C27.3733 20.4112 27.1953 20.7607 27.2168 21.2248C27.4325 21.8249 27.4325 22.4261 27.2168 23.0285C27.324 23.3308 27.4061 23.6384 27.4631 23.9513C27.3931 24.2761 27.311 24.5977 27.2168 24.9161C27.2964 25.2055 27.3649 25.4991 27.422 25.797C27.5082 25.7117 27.604 25.6977 27.7094 25.755C27.9189 25.9036 28.1105 26.0714 28.2841 26.2584C28.2477 26.5167 28.1656 26.7544 28.0378 26.9715C28.2292 27.2455 28.1744 27.4832 27.8736 27.6846C27.5953 27.7052 27.3216 27.7471 27.0526 27.8104C26.9431 27.7544 26.8336 27.6986 26.7242 27.6426C26.4536 27.7222 26.18 27.7222 25.9031 27.6426C25.8822 27.4315 25.8137 27.2357 25.6979 27.0554C25.6075 27.3398 25.4159 27.5076 25.1232 27.5587C25.0196 27.537 24.9375 27.481 24.8769 27.3909C24.7072 27.6065 24.5019 27.7743 24.2611 27.8943C24.2063 27.8383 24.1517 27.7825 24.0969 27.7265C24.0174 27.8095 23.9216 27.8654 23.8095 27.8943C23.5555 27.8555 23.2955 27.8415 23.0296 27.8523C22.9475 27.7685 22.8654 27.6846 22.7833 27.6007C22.2511 27.6154 21.7722 27.4615 21.3465 27.1393C21.21 26.807 21.1962 26.4715 21.3054 26.1326C20.9958 25.5753 20.9958 25.03 21.3054 24.4966C21.2403 24.4056 21.1856 24.3077 21.1412 24.203C21.3493 23.9579 21.3493 23.7062 21.1412 23.448C21.2274 23.1756 21.2821 22.896 21.3054 22.6091C21.1963 22.2446 21.1963 21.8811 21.3054 21.5185C21.209 21.5368 21.1269 21.5089 21.0591 21.4346C21.4444 20.7559 21.2802 20.2664 20.5665 19.9664C20.3195 19.5782 20.3742 19.2426 20.7307 18.9597C20.9441 18.8952 21.1494 18.9092 21.3465 19.0017C21.6916 18.8367 22.0473 18.8087 22.4138 18.9178C22.5962 18.9268 22.7467 18.8708 22.8654 18.75Z" fill="#FEFEFE"/>
<path opacity="0.293" fill-rule="evenodd" clip-rule="evenodd" d="M31.6503 18.8339C32.2112 18.9132 32.7859 18.9831 33.3744 19.0436C33.5695 19.2685 33.8158 19.3803 34.1134 19.3792C34.4769 19.6386 34.7095 19.9882 34.8112 20.4279C34.994 21.3644 35.035 22.3013 34.9344 23.2383C34.9891 23.406 35.0438 23.5738 35.0986 23.7416C35.0043 24.4201 34.9906 25.1052 35.0575 25.797C35.24 25.9835 35.3495 26.2071 35.3859 26.4681C35.468 26.3003 35.5501 26.1326 35.6322 25.9648C36.2114 26.0058 36.4029 26.3134 36.207 26.8876C36.0507 27.0504 35.9823 27.2461 36.0017 27.4748C35.7184 27.478 35.4447 27.534 35.1807 27.6426C34.9344 27.5867 34.6881 27.5308 34.4418 27.4748C34.2858 27.3954 34.1763 27.2695 34.1134 27.0973C33.8812 27.016 33.6895 27.0719 33.5386 27.2651C33.6207 27.293 33.7028 27.3211 33.7849 27.349C33.099 27.4531 32.4148 27.5649 31.7324 27.6846C31.7987 27.7104 31.8535 27.7523 31.8966 27.8104C31.7872 27.8383 31.6776 27.8664 31.5682 27.8943C31.2771 27.7955 30.976 27.7116 30.6651 27.6426C30.583 27.6566 30.5009 27.6706 30.4188 27.6846C30.9574 27.7317 30.9574 27.8016 30.4188 27.8943C30.2033 27.912 30.0666 27.8141 30.0083 27.6007C29.8529 27.519 29.6887 27.4631 29.5157 27.4329C29.3291 27.1898 29.0828 27.0221 28.7767 26.9295C28.8143 26.8948 28.8417 26.8529 28.8588 26.8037C28.5762 26.2897 28.5487 25.7584 28.7767 25.2097C28.6145 24.9708 28.5872 24.7191 28.6946 24.4547C28.8342 24.2284 29.0258 24.0607 29.2693 23.9513C29.3174 23.668 29.4816 23.5143 29.762 23.4899C29.8744 23.369 29.9565 23.2292 30.0083 23.0705C30.4038 22.9836 30.787 22.8717 31.1577 22.7349C31.0756 22.707 30.9935 22.6789 30.9114 22.651C31.3638 22.5132 31.8154 22.4992 32.2661 22.6091C32.6163 22.498 32.9721 22.4141 33.3334 22.3574C33.406 21.7633 33.3786 21.176 33.2513 20.5956C32.9769 20.2546 32.6211 20.0868 32.184 20.0923C31.9817 20.1477 31.7764 20.1897 31.5682 20.2181C31.3994 20.4232 31.1941 20.5769 30.9524 20.6795C30.9708 21.287 30.8477 21.8602 30.583 22.3993C30.4188 22.4413 30.2546 22.4832 30.0904 22.5252C29.8007 22.3946 29.5271 22.2548 29.2693 22.1057C29.2675 21.9021 29.2264 21.7064 29.1462 21.5185C29.1122 21.5568 29.0712 21.5848 29.023 21.6023C28.9281 21.3268 28.9143 21.0471 28.982 20.7634C29.0317 20.5972 29.1138 20.5692 29.2283 20.6795C29.3144 20.3637 29.4239 20.056 29.5567 19.7567C29.856 19.5688 30.1707 19.415 30.5009 19.2953C30.5696 19.2105 30.5969 19.1126 30.583 19.0017C30.9606 19.0201 31.3164 18.9643 31.6503 18.8339ZM32.0608 23.7836C32.158 23.9438 32.2812 23.9717 32.4303 23.8674C32.756 24.0242 33.0981 24.1361 33.4565 24.203C33.507 24.416 33.5618 24.6258 33.6207 24.8322C33.4973 24.9573 33.4289 25.1111 33.4155 25.2936C33.3117 25.4704 33.1612 25.5543 32.9639 25.5453C32.8671 25.843 32.785 26.1507 32.7176 26.4681C32.5241 26.4544 32.3326 26.4684 32.1429 26.5101C31.9438 26.6481 31.7248 26.7459 31.4861 26.8037C31.5033 26.8529 31.5307 26.8948 31.5682 26.9295C31.2946 26.9855 31.0208 26.9855 30.7472 26.9295C30.6924 26.7617 30.6377 26.594 30.583 26.4262C30.6377 26.3982 30.6924 26.3702 30.7472 26.3423C30.4601 26.0895 30.1317 25.9357 29.762 25.8809C29.747 25.7055 29.7744 25.5377 29.8441 25.3775C29.9118 25.3032 29.9939 25.2753 30.0904 25.2936C30.1134 25.0611 30.0586 24.8513 29.9262 24.6644C30.4547 24.3775 31.0021 24.1258 31.5682 23.9094C31.7005 23.849 31.8237 23.8629 31.9377 23.9513C31.9965 23.9057 32.0376 23.8497 32.0608 23.7836Z" fill="#FEFEFE"/>
<path opacity="0.294" fill-rule="evenodd" clip-rule="evenodd" d="M37.0689 18.9178C37.2478 18.9463 37.3983 19.0302 37.5205 19.1695C37.7883 18.9533 38.062 18.9533 38.3415 19.1695C38.3812 19.0899 38.3948 19.006 38.3826 18.9178C38.6885 18.8907 38.9895 18.9187 39.2857 19.0017C39.5294 19.1772 39.803 19.303 40.1067 19.3792C39.9374 19.5077 39.8279 19.6755 39.7783 19.8826C39.9735 20.0957 40.0283 20.3335 39.9425 20.5956C39.9698 20.6795 40.0246 20.7355 40.1067 20.7634C40.2068 20.6673 40.3162 20.5834 40.4351 20.5117C40.3414 20.4341 40.3414 20.3642 40.4351 20.302C40.7464 20.2442 40.9106 20.0624 40.9277 19.7567C41.0745 19.7806 41.2114 19.7527 41.3382 19.6728C41.4203 19.4771 41.5572 19.3372 41.7487 19.2534C42.0787 19.3157 42.3797 19.2318 42.6519 19.0017C43.045 19.0247 43.4007 19.1505 43.7192 19.3792C43.8178 19.4549 43.8863 19.5528 43.9244 19.6728C43.9497 19.605 43.9908 19.5491 44.0476 19.505C44.1111 19.6991 44.1658 19.8948 44.2118 20.0923C44.1921 20.3931 44.1784 20.7007 44.1707 21.0151C43.9411 21.5582 43.5306 21.8099 42.9392 21.7701C42.7353 21.6098 42.5163 21.47 42.2824 21.3507C42.1485 21.1845 42.1621 21.0167 42.3235 20.8473C42.2738 20.6811 42.1917 20.6531 42.0772 20.7634C42.011 20.5233 41.9015 20.4814 41.7487 20.6376C41.7761 20.6655 41.8035 20.6935 41.8308 20.7215C41.7091 20.9212 41.6407 21.131 41.6256 21.3507C41.5505 21.2812 41.4958 21.1973 41.4614 21.099C41.2551 21.5049 40.9405 21.6727 40.5172 21.6023C40.4445 21.6716 40.4171 21.7555 40.4351 21.854C39.9542 21.8292 39.79 22.0529 39.9425 22.5252C39.8235 22.7276 39.7688 22.9513 39.7783 23.1963C39.8134 23.4961 39.8681 23.7897 39.9425 24.0772C39.911 24.7357 39.911 25.3648 39.9425 25.9648C40.1004 26.0325 40.2646 26.0745 40.4351 26.0906C40.4865 26.1535 40.5276 26.2235 40.5583 26.3003C41.0376 26.3079 41.5165 26.2659 41.995 26.1745C42.5985 26.3144 43.0363 26.6779 43.3087 27.2651C43.208 27.4023 43.0986 27.5281 42.9803 27.6426C42.7914 27.4471 42.6547 27.4611 42.5698 27.6846C42.2096 27.7035 41.8538 27.7455 41.5024 27.8104C41.2835 27.7265 41.0646 27.6426 40.8456 27.5587C40.7313 27.6514 40.6355 27.7633 40.5583 27.8943C40.2523 27.5944 39.9239 27.5664 39.573 27.8104C39.3974 27.7487 39.2332 27.6648 39.0804 27.5587C38.7262 27.8522 38.343 27.8802 37.931 27.6426C37.5251 27.7814 37.142 27.7534 36.7816 27.5587C36.5556 27.7722 36.3776 27.7163 36.2479 27.3909C36.3045 27.2279 36.3455 27.0601 36.3711 26.8876C36.5684 26.7801 36.7189 26.6263 36.8226 26.4262C37.0401 26.3883 37.2454 26.3183 37.4384 26.2164C37.4845 26.2602 37.5392 26.2882 37.6026 26.3003C37.751 26.1477 37.9288 26.0497 38.1363 26.0067C38.2419 25.8884 38.3377 25.7626 38.4236 25.6292C38.3107 24.8777 38.2697 24.1227 38.3005 23.3641C38.4589 22.5991 38.4589 21.83 38.3005 21.057C38.3278 20.9732 38.3552 20.8893 38.3826 20.8054C38.2712 20.6739 38.2165 20.5201 38.2184 20.344C37.9353 20.3768 37.6753 20.3209 37.4384 20.1762C37.1464 20.4258 36.8865 20.3978 36.6584 20.0923C36.6157 19.8942 36.5883 19.6985 36.5763 19.505C36.7424 19.3076 36.9066 19.1119 37.0689 18.9178Z" fill="#FEFEFE"/>
<path opacity="0.304" fill-rule="evenodd" clip-rule="evenodd" d="M49.959 25.2936C49.959 25.797 49.959 26.3003 49.959 26.8037C49.6334 27.3709 49.1408 27.6924 48.4811 27.7685C47.3205 27.9873 46.5816 27.5259 46.2644 26.3842C46.0911 25.4834 46.4195 24.8822 47.2496 24.5805C47.1948 24.5526 47.1402 24.5246 47.0854 24.4966C47.2168 24.4737 47.34 24.4318 47.4549 24.3708C48.4549 24.0725 49.2896 24.3801 49.959 25.2936Z" fill="#FEFEFE"/>
</g>
<defs>
<clipPath id="clip0_32_138">
<rect width="50" height="50" fill="white"/>
</clipPath>
</defs>
</svg>
