<?xml version="1.0" encoding="UTF-8"?>
<!DOCTYPE svg PUBLIC "-//W3C//DTD SVG 1.1//EN" "http://www.w3.org/Graphics/SVG/1.1/DTD/svg11.dtd">
<svg xmlns="http://www.w3.org/2000/svg" version="1.1" width="512px" height="512px" style="shape-rendering:geometricPrecision; text-rendering:geometricPrecision; image-rendering:optimizeQuality; fill-rule:evenodd; clip-rule:evenodd" xmlns:xlink="http://www.w3.org/1999/xlink">
<g><path style="opacity:0.999" fill="#f6f6f6" d="M 144.5,462.5 C 144.265,461.903 143.765,461.57 143,461.5C 138.627,462.57 134.461,463.903 130.5,465.5C 93.3468,475.545 56.0135,485.212 18.5,494.5C 20.5187,483.422 23.0187,472.422 26,461.5C 34.8794,432.029 43.0461,402.362 50.5,372.5C 15.8299,307.626 10.3299,240.293 34,170.5C 69.5206,84.2877 133.354,33.1211 225.5,17C 329.657,8.01665 409.157,47.5166 464,135.5C 508.553,220.657 505.553,303.99 455,385.5C 393.221,469.942 310.388,503.442 206.5,486C 184.553,481.178 163.886,473.345 144.5,462.5 Z M 325.5,67.5 C 326.78,68.9313 328.447,69.5979 330.5,69.5C 331.78,70.9313 333.447,71.5979 335.5,71.5C 339.645,73.7365 343.978,75.7365 348.5,77.5C 349.287,79.1042 350.62,79.7709 352.5,79.5C 352.973,80.9063 353.973,81.573 355.5,81.5C 356.659,83.2503 358.326,84.2503 360.5,84.5C 360.973,85.9063 361.973,86.573 363.5,86.5C 365.951,89.2768 368.951,91.2768 372.5,92.5C 373.262,94.2624 374.596,95.2624 376.5,95.5C 377.262,97.2624 378.596,98.2624 380.5,98.5C 380.5,99.1667 380.833,99.5 381.5,99.5C 389.14,106.806 396.807,114.139 404.5,121.5C 405.167,122.833 406.167,123.833 407.5,124.5C 407.738,126.404 408.738,127.738 410.5,128.5C 410.833,129.5 411.5,130.167 412.5,130.5C 412.427,132.027 413.094,133.027 414.5,133.5C 414.5,134.167 414.833,134.5 415.5,134.5C 415.427,136.027 416.094,137.027 417.5,137.5C 419.533,140.523 421.533,143.523 423.5,146.5C 423.427,148.027 424.094,149.027 425.5,149.5C 464.389,216.917 465.222,284.917 428,353.5C 388.452,416.212 331.285,448.879 256.5,451.5C 233.169,450.867 210.502,446.7 188.5,439C 174.621,433.143 161.121,426.643 148,419.5C 123.795,425.759 99.6285,432.093 75.5,438.5C 75.5,437.833 75.1667,437.5 74.5,437.5C 82.0942,413.455 88.2609,389.122 93,364.5C 56.4158,305.695 50.0825,243.695 74,178.5C 77.5881,170.326 81.4215,162.326 85.5,154.5C 86.9063,154.027 87.573,153.027 87.5,151.5C 99.9338,131.394 115.267,113.727 133.5,98.5C 135.027,98.573 136.027,97.9063 136.5,96.5C 140.19,93.8015 143.857,91.1348 147.5,88.5C 149.027,88.573 150.027,87.9063 150.5,86.5C 152.027,86.573 153.027,85.9063 153.5,84.5C 158.667,82.0843 163.667,79.4176 168.5,76.5C 170.153,76.3404 171.486,75.6737 172.5,74.5C 222.628,51.6765 273.628,49.3432 325.5,67.5 Z"/></g>
<g><path style="opacity:0.48" fill="#000000" d="M 325.5,67.5 C 327.553,67.4021 329.22,68.0687 330.5,69.5C 328.447,69.5979 326.78,68.9313 325.5,67.5 Z"/></g>
<g><path style="opacity:0.504" fill="#000000" d="M 330.5,69.5 C 332.553,69.4021 334.22,70.0687 335.5,71.5C 333.447,71.5979 331.78,70.9313 330.5,69.5 Z"/></g>
<g><path style="opacity:0.47" fill="#000000" d="M 172.5,74.5 C 171.486,75.6737 170.153,76.3404 168.5,76.5C 169.287,74.8958 170.62,74.2291 172.5,74.5 Z"/></g>
<g><path style="opacity:0.552" fill="#000000" d="M 348.5,77.5 C 350.153,77.6596 351.486,78.3263 352.5,79.5C 350.62,79.7709 349.287,79.1042 348.5,77.5 Z"/></g>
<g><path style="opacity:0.597" fill="#000000" d="M 355.5,81.5 C 357.674,81.7497 359.341,82.7497 360.5,84.5C 358.326,84.2503 356.659,83.2503 355.5,81.5 Z"/></g>
<g><path style="opacity:0.547" fill="#000000" d="M 153.5,84.5 C 153.027,85.9063 152.027,86.573 150.5,86.5C 150.973,85.0937 151.973,84.427 153.5,84.5 Z"/></g>
<g><path style="opacity:0.579" fill="#000000" d="M 360.5,84.5 C 362.027,84.427 363.027,85.0937 363.5,86.5C 361.973,86.573 360.973,85.9063 360.5,84.5 Z"/></g>
<g><path style="opacity:0.55" fill="#000000" d="M 150.5,86.5 C 150.027,87.9063 149.027,88.573 147.5,88.5C 147.973,87.0937 148.973,86.427 150.5,86.5 Z"/></g>
<g><path style="opacity:0.536" fill="#000000" d="M 363.5,86.5 C 367.049,87.7232 370.049,89.7232 372.5,92.5C 368.951,91.2768 365.951,89.2768 363.5,86.5 Z"/></g>
<g><path style="opacity:0.562" fill="#000000" d="M 372.5,92.5 C 374.404,92.7376 375.738,93.7376 376.5,95.5C 374.596,95.2624 373.262,94.2624 372.5,92.5 Z"/></g>
<g><path style="opacity:0.499" fill="#000000" d="M 376.5,95.5 C 378.404,95.7376 379.738,96.7376 380.5,98.5C 378.596,98.2624 377.262,97.2624 376.5,95.5 Z"/></g>
<g><path style="opacity:0.503" fill="#000000" d="M 136.5,96.5 C 136.027,97.9063 135.027,98.573 133.5,98.5C 133.973,97.0937 134.973,96.427 136.5,96.5 Z"/></g>
<g><path style="opacity:0.503" fill="#000000" d="M 381.5,99.5 C 390.458,105.458 398.125,112.791 404.5,121.5C 396.807,114.139 389.14,106.806 381.5,99.5 Z"/></g>
<g><path style="opacity:0.449" fill="#000000" d="M 407.5,124.5 C 409.262,125.262 410.262,126.596 410.5,128.5C 408.738,127.738 407.738,126.404 407.5,124.5 Z"/></g>
<g><path style="opacity:0.498" fill="#000000" d="M 412.5,130.5 C 413.906,130.973 414.573,131.973 414.5,133.5C 413.094,133.027 412.427,132.027 412.5,130.5 Z"/></g>
<g><path style="opacity:0.497" fill="#000000" d="M 415.5,134.5 C 416.906,134.973 417.573,135.973 417.5,137.5C 416.094,137.027 415.427,136.027 415.5,134.5 Z"/></g>
<g><path style="opacity:0.999" fill="#f7f7f7" d="M 215.5,209.5 C 214.094,209.973 213.427,210.973 213.5,212.5C 208.498,219.009 203.665,225.675 199,232.5C 198.035,236.782 198.702,240.782 201,244.5C 220.214,276.044 247.047,298.544 281.5,312C 284.5,312.667 287.5,312.667 290.5,312C 298.723,304.07 305.89,295.237 312,285.5C 313.853,283.408 316.186,282.408 319,282.5C 336.216,289.023 353.05,296.523 369.5,305C 377.832,309.113 380.332,315.613 377,324.5C 376.151,336.366 370.984,345.866 361.5,353C 342.568,367.386 321.568,371.386 298.5,365C 292.279,363.123 286.279,360.956 280.5,358.5C 278.786,357.262 276.786,356.595 274.5,356.5C 261.944,352.544 250.278,346.877 239.5,339.5C 239.027,338.094 238.027,337.427 236.5,337.5C 231.473,334.655 226.806,331.321 222.5,327.5C 222.027,326.094 221.027,325.427 219.5,325.5C 218.5,325.167 217.833,324.5 217.5,323.5C 217.027,322.094 216.027,321.427 214.5,321.5C 212.833,320.5 211.5,319.167 210.5,317.5C 210.027,316.094 209.027,315.427 207.5,315.5C 205.833,314.5 204.5,313.167 203.5,311.5C 200.5,307.833 197.167,304.5 193.5,301.5C 190.5,299.167 187.833,296.5 185.5,293.5C 185.573,291.973 184.906,290.973 183.5,290.5C 177.445,284.778 172.111,278.444 167.5,271.5C 167.573,269.973 166.906,268.973 165.5,268.5C 155.333,256.189 147.166,242.522 141,227.5C 131.31,200.317 135.644,175.65 154,153.5C 158.043,149.123 162.876,145.956 168.5,144C 176.272,143.069 183.939,143.402 191.5,145C 194.531,147.559 196.698,150.726 198,154.5C 203.724,168.948 209.724,183.282 216,197.5C 216.812,201.689 216.645,205.689 215.5,209.5 Z"/></g>
<g><path style="opacity:0.396" fill="#000000" d="M 423.5,146.5 C 424.906,146.973 425.573,147.973 425.5,149.5C 424.094,149.027 423.427,148.027 423.5,146.5 Z"/></g>
<g><path style="opacity:0.589" fill="#000000" d="M 87.5,151.5 C 87.573,153.027 86.9063,154.027 85.5,154.5C 85.427,152.973 86.0937,151.973 87.5,151.5 Z"/></g>
<g><path style="opacity:0.525" fill="#000000" d="M 215.5,209.5 C 215.573,211.027 214.906,212.027 213.5,212.5C 213.427,210.973 214.094,209.973 215.5,209.5 Z"/></g>
<g><path style="opacity:0.467" fill="#000000" d="M 165.5,268.5 C 166.906,268.973 167.573,269.973 167.5,271.5C 166.094,271.027 165.427,270.027 165.5,268.5 Z"/></g>
<g><path style="opacity:0.477" fill="#000000" d="M 183.5,290.5 C 184.906,290.973 185.573,291.973 185.5,293.5C 184.094,293.027 183.427,292.027 183.5,290.5 Z"/></g>
<g><path style="opacity:0.46" fill="#000000" d="M 193.5,301.5 C 197.167,304.5 200.5,307.833 203.5,311.5C 199.167,309.167 195.833,305.833 193.5,301.5 Z"/></g>
<g><path style="opacity:0.493" fill="#000000" d="M 207.5,315.5 C 209.027,315.427 210.027,316.094 210.5,317.5C 208.973,317.573 207.973,316.906 207.5,315.5 Z"/></g>
<g><path style="opacity:0.44" fill="#000000" d="M 214.5,321.5 C 216.027,321.427 217.027,322.094 217.5,323.5C 215.973,323.573 214.973,322.906 214.5,321.5 Z"/></g>
<g><path style="opacity:0.501" fill="#000000" d="M 219.5,325.5 C 221.027,325.427 222.027,326.094 222.5,327.5C 220.973,327.573 219.973,326.906 219.5,325.5 Z"/></g>
<g><path style="opacity:0.398" fill="#000000" d="M 236.5,337.5 C 238.027,337.427 239.027,338.094 239.5,339.5C 237.973,339.573 236.973,338.906 236.5,337.5 Z"/></g>
<g><path style="opacity:0.492" fill="#000000" d="M 274.5,356.5 C 276.786,356.595 278.786,357.262 280.5,358.5C 278.102,358.741 276.102,358.074 274.5,356.5 Z"/></g>
<g><path style="opacity:0.619" fill="#000000" d="M 74.5,437.5 C 75.1667,437.5 75.5,437.833 75.5,438.5C 75.44,439.043 75.1067,439.376 74.5,439.5C 73.2267,438.743 73.2267,438.077 74.5,437.5 Z"/></g>
<g><path style="opacity:0.675" fill="#000000" d="M 144.5,462.5 C 139.921,463.915 135.255,464.915 130.5,465.5C 134.461,463.903 138.627,462.57 143,461.5C 143.765,461.57 144.265,461.903 144.5,462.5 Z"/></g>
</svg>
